<svg width="200" height="182.5598078474198" viewBox="0 0 200 182.5598078474198" class="css-1j8o68f"><defs id="SvgjsDefs1640"></defs><g id="SvgjsG1641" featurekey="rDwwlG-0" transform="matrix(2.1739130434782608,0,0,2.1739130434782608,30.434782608695652,-4.3478260869565215)" fill="#15eda3"><g xmlns="http://www.w3.org/2000/svg" class="st0" style="display: none;"><g class="st1" style="display: inline;"><rect x="2" y="2" class="st2" width="60" height="60" style="fill: none; stroke: #15eda3; stroke-width: 0.1; stroke-miterlimit: 10;"></rect><line class="st2" x1="32" y1="2" x2="32" y2="62" style="fill: none; stroke: #15eda3; stroke-width: 0.1; stroke-miterlimit: 10;"></line><line class="st2" x1="62" y1="32" x2="2" y2="32" style="fill: none; stroke: #15eda3; stroke-width: 0.1; stroke-miterlimit: 10;"></line><line class="st2" x1="2" y1="2" x2="62" y2="62" style="fill: none; stroke: #15eda3; stroke-width: 0.1; stroke-miterlimit: 10;"></line><rect x="10" y="10" class="st2" width="44" height="44" style="fill: none; stroke: #15eda3; stroke-width: 0.1; stroke-miterlimit: 10;"></rect><line class="st2" x1="62" y1="2" x2="2" y2="62" style="fill: none; stroke: #15eda3; stroke-width: 0.1; stroke-miterlimit: 10;"></line><line class="st2" x1="2" y1="32" x2="32" y2="2" style="fill: none; stroke: #15eda3; stroke-width: 0.1; stroke-miterlimit: 10;"></line><line class="st2" x1="32" y1="2" x2="62" y2="32" style="fill: none; stroke: #15eda3; stroke-width: 0.1; stroke-miterlimit: 10;"></line><line class="st2" x1="62" y1="32" x2="32" y2="62" style="fill: none; stroke: #15eda3; stroke-width: 0.1; stroke-miterlimit: 10;"></line><line class="st2" x1="32" y1="62" x2="2" y2="32" style="fill: none; stroke: #15eda3; stroke-width: 0.1; stroke-miterlimit: 10;"></line><circle class="st2" cx="32" cy="32" r="21" style="fill: none; stroke: #15eda3; stroke-width: 0.1; stroke-miterlimit: 10;"></circle></g></g><polygon xmlns="http://www.w3.org/2000/svg" points="46,3 46,12 54,12 "></polygon><path xmlns="http://www.w3.org/2000/svg" d="M9,13v16h21V13H9z M18,24c0,1.7-1.3,3-3,3h-1c-1.7,0-3-1.3-3-3v-1h2v1c0,0.6,0.4,1,1,1h1c0.6,0,1-0.4,1-1v-9h2V24z M28,19  h-2v-1c0-0.6-0.4-1-1-1h-2c-0.6,0-1,0.4-1,1v1c0,0.6,0.4,1,1,1h2c1.7,0,3,1.3,3,3v1c0,1.7-1.3,3-3,3h-2c-1.7,0-3-1.3-3-3v-1h2v1  c0,0.6,0.4,1,1,1h2c0.6,0,1-0.4,1-1v-1c0-0.6-0.4-1-1-1h-2c-1.7,0-3-1.3-3-3v-1c0-1.7,1.3-3,3-3h2c1.7,0,3,1.3,3,3V19z"></path><path xmlns="http://www.w3.org/2000/svg" d="M44,14V2H13v9h19v20H13v31h42V14H44z M39,40h-1.6c-1.1,0-2.4,0.9-2.4,2v2.3c0,1.3-0.3,2.6-1.3,3.5v0.1V48  c0.9,0.9,1.3,2.2,1.3,3.5V54c0,1.1,1.3,2,2.4,2H39v2h-1.6c-2.2,0-4.4-1.8-4.4-4v-2.3c0-0.8-0.1-1.6-0.7-2.1L30.9,48l1.4-1.5  c0.6-0.6,0.7-1.3,0.7-2.1V42c0-2.2,2.2-4,4.4-4H39V40z M49.7,49.5c-0.6,0.6-0.7,1.3-0.7,2.1V54c0,2.2-2.2,4-4.4,4H43v-2h1.6  c1.1,0,2.4-0.9,2.4-2v-2.3c0-1.3,0.3-2.6,1.3-3.5v-0.1V48c-0.9-0.9-1.3-2.2-1.3-3.5V42c0-1.1-1.3-2-2.4-2H43v-2h1.6  c2.2,0,4.4,1.8,4.4,4v2.3c0,0.8,0.1,1.6,0.7,2.1l1.5,1.5L49.7,49.5z"></path></g><g id="SvgjsG1642" featurekey="4AZ1rv-0" transform="matrix(1.798884563110487,0,0,1.798884563110487,-2.44648238823226,139.85429044645886)" fill="#15eda3"><path d="M1.36 20 l0 -13.22 l8.64 0 l0 2.86 l-5.28 0 l0 2.28 l4.44 0 l0 2.86 l-4.44 0 l0 5.22 l-3.36 0 z M20.439999999999998 10.66 l0 9.34 l-2.82 0 l-0.08 -1.46 c-0.26 0.56 -1.04 1.74 -3.1 1.74 c-1.38 0 -2.98 -0.56 -2.98 -3.48 l0 -6.14 l3.12 0 l0 5.34 c0 1.1 0.26 1.64 0.9 1.64 c1.08 0 1.66 -1.82 1.84 -2.5 l0 -4.48 l3.12 0 z M22.52 20 l0 -9.34 l2.9 0 l0 1.48 c0.24 -0.56 1.02 -1.76 3.1 -1.76 c1.38 0 2.98 0.56 2.98 3.48 l0 6.14 l-3.12 0 l0 -5.34 c0 -1.1 -0.26 -1.64 -0.9 -1.64 c-1.12 0 -1.68 1.56 -1.84 2.16 l0 4.82 l-3.12 0 z M39.040000000000006 16.68 l2.9 0.58 c-0.54 1.78 -1.58 3.02 -4.16 3.02 c-3.24 0 -4.68 -1.82 -4.68 -4.98 c0 -3.7 2.04 -4.92 4.76 -4.92 c2.56 0 4.24 1.22 4.02 3.34 l-3.06 0.62 c0.18 -1.26 -0.44 -1.64 -1 -1.64 c-1.34 0 -1.48 1.44 -1.48 2.78 c0 1.66 0.4 2.48 1.48 2.48 c0.76 0 1.22 -0.48 1.22 -1.28 z M42.78 13 l0 -2.34 l1.18 0 l0.18 -2.56 l2.9 0 l0 2.56 l2.56 0 l0 2.34 l-2.56 0 l0 3.96 c0 0.46 0.14 0.74 0.54 0.74 c0.5 0 0.6 -0.56 0.64 -1.12 l2.28 0.8 c-0.4 1.58 -1.02 2.82 -3.3 2.82 c-2.48 0 -3.28 -1.58 -3.28 -3.24 l0 -3.96 l-1.14 0 z M51.32000000000001 7.4 c0 -0.96 0.8 -1.74 1.76 -1.74 c0.98 0 1.76 0.78 1.76 1.74 s-0.78 1.76 -1.76 1.76 c-0.96 0 -1.76 -0.8 -1.76 -1.76 z M51.52 20 l0 -9.34 l3.12 0 l0 9.34 l-3.12 0 z M61.2 20.28 c-3.78 0 -4.92 -2.34 -4.92 -5.02 c0 -2.62 1.08 -4.88 4.86 -4.88 c3.86 0 4.88 2.34 4.88 4.92 c0 2.74 -1.14 4.98 -4.82 4.98 z M61.16000000000001 17.96 c1.36 0 1.62 -1.26 1.62 -2.62 s-0.26 -2.64 -1.64 -2.64 c-1.36 0 -1.62 1.28 -1.62 2.6 c0 1.34 0.26 2.66 1.64 2.66 z M67.68000000000002 20 l0 -9.34 l2.9 0 l0 1.48 c0.24 -0.56 1.02 -1.76 3.1 -1.76 c1.38 0 2.98 0.56 2.98 3.48 l0 6.14 l-3.12 0 l0 -5.34 c0 -1.1 -0.26 -1.64 -0.9 -1.64 c-1.12 0 -1.68 1.56 -1.84 2.16 l0 4.82 l-3.12 0 z M87.24000000000001 20.1 c-2.14 0.34 -2.98 -0.52 -3.24 -1.22 c-0.48 0.68 -1.2 1.4 -2.66 1.4 c-1.7 0 -3.16 -0.96 -3.16 -2.74 c0 -2.16 2.14 -3.14 5.4 -3.16 l0 -0.28 c0 -1.06 -0.26 -1.44 -1.02 -1.44 c-0.72 0 -1.06 0.34 -0.96 1.24 l-3.1 -0.58 c-0.2 -1.62 1.24 -2.94 4.28 -2.94 c2.86 0 3.92 1.18 3.92 3.76 l0 2.2 c0 1.02 0.04 1.54 1.1 1.3 z M83.58000000000001 16.88 l0 -0.74 c-1.22 0.02 -2.26 0.24 -2.26 1.16 c0 0.52 0.34 0.76 0.86 0.76 c0.6 0 1.32 -0.32 1.4 -1.18 z M89.08000000000003 20 l0 -14.36 l3.12 0 l0 14.36 l-3.12 0 z M95.62000000000002 23.66 l0 -2.84 s0.18 0.04 0.58 0.04 c1.84 0 2.68 -0.88 2.68 -2.86 l0 -11.22 l3.34 0 l0 11.4 c0 3.82 -2.24 5.56 -5.32 5.56 c-0.32 0 -0.72 -0.02 -1.28 -0.08 z M104.10000000000002 17.5 l2.94 -0.46 c-0.08 0.48 0.28 0.92 1.26 0.92 c0.58 0 1.04 -0.18 1.04 -0.56 c0 -1.2 -5.04 -0.48 -5.04 -4 c0 -1.82 1.34 -3.02 3.98 -3.02 c2.4 0 4.28 0.98 3.96 2.72 l-3.12 0.54 c0.12 -0.44 -0.14 -0.94 -0.88 -0.94 c-0.6 0 -0.78 0.3 -0.78 0.56 c0 1.4 5.08 0.5 5.08 3.96 c0 2.14 -1.92 3.06 -4.36 3.06 c-2.32 0 -4.28 -0.88 -4.08 -2.78 z"></path></g></svg>